<?xml version="1.0" encoding="UTF-8"?>
<svg id="Ressources" xmlns="http://www.w3.org/2000/svg" viewBox="0 0 47.31 47.01">
  <defs>
    <style>
      .cls-1 {
        fill: #fff;
      }
    </style>
  </defs>
  <path class="cls-1" d="M47.3,27.23c0-.09,0-.17,0-.26,0-.1,0-.19,0-.29,0-5,0-9.99,0-14.99,0-.1,0-.19,0-.29,0-.07,0-.14,0-.21,0-1.2,0-2.4,0-3.6,0-.1,0-.19,0-.29-.07-.06-.05-.14-.04-.22,0-.03,0-.07,0-.1-.01-.04-.02-.07-.04-.11-.06-.26-.16-.5-.29-.73-.31-.54-.75-.94-1.32-1.2-.45-.21-.9-.43-1.35-.65-.94-.45-1.88-.9-2.82-1.36-.88-.42-1.77-.85-2.65-1.27-.93-.45-1.86-.89-2.79-1.34-.25-.12-.51-.23-.79-.28-.08,0-.15.02-.21-.04C34.75,0,34.5,0,34.26,0c-.05.05-.11.05-.17.04-.32.05-.62.15-.89.32v.05c-.04.06-.1.05-.16.05-.14.1-.28.18-.4.29-.45.4-.89.81-1.34,1.22-.45.41-.89.81-1.34,1.22-.87.79-1.75,1.59-2.62,2.39-1.12,1.02-2.24,2.04-3.36,3.06-.45.41-.91.82-1.36,1.24-.35.32-.69.64-1.04.96l-.04.04h0s-.03.04-.05.05c-.03.02-.06.04-.09.06-.87.79-1.73,1.58-2.6,2.37-.05.04-.08.09-.12.13-.08.06-.15.12-.23.18-.27.25-.54.5-.81.74-.52.47-1.03.94-1.55,1.41-.73.67-1.46,1.33-2.19,2-.09-.05-.18-.1-.27-.16-.81-.61-1.62-1.23-2.43-1.84-1.8-1.36-3.6-2.73-5.4-4.09-.18-.14-.38-.25-.59-.34-.06,0-.12,0-.16-.05-.02,0-.03,0-.05,0-.06-.06-.14-.05-.22-.04-.16,0-.31,0-.47,0-.09,0-.19-.03-.26.05-.04.05-.1.06-.16.05-.3.1-.54.28-.77.49-.56.51-1.13,1.02-1.69,1.54-.3.28-.62.54-.9.84-.51.53-.65,1.16-.49,1.87.08.36.26.67.53.92.29.28.59.54.89.81.07.06.15.12.22.18.07.06.14.13.2.19.02.02.03.03.05.05h0s.03.03.05.05h.01s.03.04.04.05h.01s.02.03.03.04c.13.11.25.23.38.34.02.01.03.03.05.05h0s.03.03.05.05h0s.03.04.04.05h.01s.02.03.03.04c.14.13.29.26.43.39.02.02.03.03.05.05h0s.03.03.05.05h.01s.03.03.03.05c.06.05.11.11.17.16.42.38.84.77,1.26,1.15.48.44.95.87,1.43,1.31.25.22.5.44.74.66v.02s.02,0,.02,0c.02.01.04.03.05.04.18.17.37.34.55.52.06.06.14.1.15.2-.02.02-.05.03-.06.05-.43.39-.86.79-1.29,1.18-.34.3-.68.6-1.01.91-.4.36-.8.73-1.2,1.09-.46.42-.91.84-1.36,1.26-.45.41-.9.82-1.35,1.23-.26.24-.52.47-.77.71-.16.15-.29.32-.39.52-.23.47-.26.96-.13,1.46,0,.02.02.05.03.07,0,.03.02.06.03.09.01.02.02.04.03.07.09.22.22.42.39.59.11.11.23.21.34.32.32.3.63.6.96.89.25.23.51.45.76.67.23.21.47.42.7.63.12.11.24.19.39.25.04.02.07.03.11.05.01,0,.03,0,.04.01.05,0,.09,0,.12.04.07.02.14.04.2.06.05.05.11.05.17.04.15,0,.31,0,.46,0,.04-.01.08-.02.12-.04.35-.08.65-.23.93-.45.4-.31.8-.61,1.2-.91.52-.39,1.04-.79,1.56-1.18.51-.39,1.03-.78,1.54-1.17.54-.41,1.08-.82,1.62-1.23.48-.36.96-.72,1.43-1.09.22-.17.43-.33.64-.5.06.04.12.08.17.12.28.25.56.5.84.76.72.65,1.43,1.31,2.15,1.96.05.04.1.07.15.11.11.1.22.2.33.31.02.02.03.03.05.05h0s.03.03.05.05h0s.03.04.04.05h.01s.03.03.03.04c.13.11.25.23.37.34.02.02.03.03.05.05h0c.05.05.1.1.15.15.17.17.35.33.52.49.02.01.04.03.06.04h0s.03.03.05.05c.18.16.35.32.53.48.02.02.03.03.05.05h0s.03.04.05.05c.16.14.32.28.48.43.02.01.03.03.05.05h0s.03.03.05.05c.18.16.35.32.53.48.02.02.03.03.05.05h0s.03.04.05.05c.34.32.68.63,1.02.95,0,0,.01,0,.02,0,.02.02.04.03.06.05h0s.03.03.05.05h0s.03.03.05.05h0s.03.04.05.05h0s.03.04.04.05h.01s.02.04.04.05c0,.01.02.02.04.03.02.02.04.04.06.05.26.24.51.48.77.71,1.34,1.23,2.69,2.46,4.04,3.68.67.61,1.34,1.23,2.02,1.84,1.17,1.07,2.34,2.14,3.51,3.2.14.12.29.22.44.33.02.01.04.03.07.04h0c.12.02.24.04.36.07.05.01.1,0,.14.01-.05,0-.09,0-.14-.01-.12-.03-.24-.05-.36-.07.2.16.43.25.67.33.04.01.08.03.11.04.02,0,.03,0,.05,0,.08,0,.15-.02.21.05.02,0,.03,0,.05,0,.3,0,.6,0,.9,0,.33-.03.63-.15.92-.29.43-.2.85-.41,1.28-.61,1.45-.7,2.9-1.4,4.35-2.1.84-.41,1.69-.81,2.53-1.22.51-.24,1.01-.48,1.51-.73.61-.3,1.06-.76,1.36-1.37.2-.42.29-.86.29-1.32,0-4.05,0-8.09,0-12.14ZM34.24,46.6s.04,0,.07-.02c0,0,.01,0,.02,0,0,0-.01,0-.02,0-.02,0-.04,0-.07.02ZM35.48,27.18c0,2.24,0,4.48,0,6.72,0,.1,0,.19,0,.29,0,.02,0,.04,0,.06-.02,0-.03-.02-.05-.02-.04-.03-.08-.06-.12-.1-.02-.02-.03-.03-.05-.05h0s-.06-.03-.1-.04c-.02-.02-.04-.05-.06-.07-.02-.02-.03-.03-.05-.05h0s-.07-.03-.1-.04c-.02-.02-.04-.05-.06-.07-.02-.02-.03-.03-.05-.05h0s-.07-.03-.1-.04c-.02-.02-.04-.05-.06-.07-.01-.02-.03-.03-.05-.05h0s-.06-.02-.09-.03c-.08-.13-.21-.2-.32-.29-.54-.42-1.08-.82-1.62-1.23-.02-.01-.05-.02-.07-.04-.01-.01-.03-.03-.05-.04-.02-.01-.03-.02-.05-.03-.2-.16-.4-.32-.6-.47-2.42-1.83-4.84-3.67-7.26-5.5-1-.76-1.99-1.51-2.99-2.27-.06-.05-.13-.09-.18-.15-.02-.02,0-.06,0-.09.32-.23.64-.47.95-.7,1.43-1.08,2.86-2.17,4.29-3.25,2.43-1.85,4.87-3.69,7.3-5.54.12-.09.24-.19.36-.29.01,0,.01-.03.02-.05.18-.07.3-.23.45-.33.22-.15.43-.31.65-.47.02-.02.04-.03.05-.05,0,.02,0,.03,0,.05,0,.11.01.23.01.34,0,4.45,0,8.91,0,13.36,0,.11,0,.23.02.34,0,.1-.01.21-.01.31Z"/>
</svg>