<?xml version="1.0" encoding="UTF-8"?>
<svg id="Ressources" xmlns="http://www.w3.org/2000/svg" viewBox="0 0 43.58 40.08">
  <defs>
    <style>
      .cls-1 {
        fill: #fff;
      }

      .cls-2 {
        fill: #114172;
      }
    </style>
  </defs>
  <rect class="cls-1" x="0" y="0" width="43.58" height="40.08"/>
  <path class="cls-2" d="M33.6,15.96c-.07-.1-.18-.11-.18-.11h-2.85s-.25,0-.3.06c-.06.06-.04.17-.04.17v14.61s-.02.28.06.36c.07.08.15.07.15.07,0,0,2.89,0,2.98,0,.1,0,.2-.04.24-.1.04-.06.06-.17.06-.17l-.03-14.46s.02-.26-.09-.43"/>
  <path class="cls-2" d="M31.95,13.92c1.14,0,2.06-.92,2.06-2.06s-.92-2.06-2.06-2.06c-1.14,0-2.06.92-2.06,2.06,0,1.14.92,2.06,2.06,2.06"/>
  <path class="cls-2" d="M26.75,31.02l-6.61-22.19h-4.3c-.13,0-.24.09-.26.22-.06.39-.06,1.1-.06,1.1l-4.04,14.22-1.76,6.13s-.12.41-.14.47c-.01.06-.02.18.04.23.06.05.13.04.13.04h3.07s.13,0,.19-.05c.06-.05.07-.16.07-.16l1.58-6.1h6.54s1.57,5.7,1.63,5.92c.07.22.07.28.16.34.09.06.2.05.2.05h1.57s1.88,0,1.95-.05c.07-.06.03-.17.03-.17M15.53,21.57l2.4-9.59,2.4,9.59h-4.79Z"/>
</svg>