<?xml version="1.0" encoding="UTF-8"?>
<svg id="Ressources" xmlns="http://www.w3.org/2000/svg" viewBox="0 0 43.58 40.08">
  <defs>
    <style>
      .cls-1 {
        fill: #fff;
      }

      .cls-2 {
        fill: #114172;
      }
    </style>
  </defs>
  <rect class="cls-1" x="0" y="0" width="43.58" height="40.08"/>
  <path class="cls-2" d="M15.83,8.73h-7.17s0,22.62,0,22.62h3.68s.06-8.14.06-8.14h3.11s6.52.32,6.84-7.24c.32-7.56-6.53-7.24-6.53-7.24M12.42,19.97v-8.14s6.19-.97,6.19,4.07c0,5.04-6.19,4.07-6.19,4.07"/>
  <path class="cls-2" d="M34.22,14.65v3.39s-2.16-1.14-3.81-1.09c-1.65.05-2.25,1.07-2.3,1.57-.05.51.53,1.31,2.23,2.11,1.7.8,3.78,2.62,4.29,3.81.51,1.19.24,3.1,0,3.85-.24.75-1.14,1.92-3.12,2.67-1.97.75-4.83.22-5.51,0-.68-.22-1.5-.63-1.5-.63v-3.51s.66.07.66.07c0,0,1.89,1.31,4.07,1.26,2.18-.05,2.21-1.43,2.08-2.04-.12-.61-.75-1.07-1.89-1.67-1.14-.61-3.73-2.13-4.17-2.96-.44-.82-.78-3.08-.39-4.34.39-1.26,2.16-2.91,3.64-3.03,1.48-.12,4-.05,5.72.53"/>
</svg>