<?xml version="1.0" encoding="UTF-8"?>
<svg id="Ressources" xmlns="http://www.w3.org/2000/svg" viewBox="0 0 42.53 41.93">
  <defs>
    <style>
      .cls-1 {
        fill: #fff;
      }
    </style>
  </defs>
  <path class="cls-1" d="M30.99,14.62c-.76-.33-1.57-.31-2.28-.7,8.98-.74,8.14-13.11.51-13.78-5.04-.45-10.71.33-15.82,0-7.95,1.33-8.08,12.27-.21,13.93-1.32.14-3.19,1.26-4.07,2.25-3.73,4.2-1.29,10.81,4.21,11.61-2.98.57-5.64,2.97-5.95,6.09-.81,8.26,10,10.77,13.23,4.09.16-.33.7-1.93.7-2.2v-12.84s.96,1.73.96,1.73c3.25,4.82,10.49,4.13,12.46-1.44,1.19-3.37-.44-7.32-3.74-8.73ZM26.91,14.21c-2.83.56-4.49,2.32-5.52,4.93l-.07-5.08c2.05-.03,4.05-.04,6.09-.15.08.46-.23.24-.5.29Z"/>
</svg>