<?xml version="1.0" encoding="UTF-8"?>
<svg id="Ressources" xmlns="http://www.w3.org/2000/svg" viewBox="0 0 43.58 40.08">
  <defs>
    <style>
      .cls-1 {
        fill: #fff;
      }

      .cls-2 {
        fill: #114172;
      }
    </style>
  </defs>
  <rect class="cls-1" x="0" y="0" width="43.58" height="40.08"/>
  <path class="cls-2" d="M35.39,23.55c.47-.04,1.42-.04,1.52-.16.1-.12.34-1.42.28-2.65-.07-1.23-.5-2.75-.99-3.7-.48-.95-1.97-2.35-3.65-2.63-1.68-.28-3.2-.17-5.02,1.01-1.82,1.18-2.84,4.03-3.05,5.57-.21,1.54-.26,4.24.62,6.27.88,2.02,2.04,2.89,2.96,3.36.92.47,2.98.93,4.34.8,1.37-.14,2.47-.28,3.1-.66.62-.38.52-.31.5-.99-.02-.68,0-1.94,0-2.01s.08-.24-.12-.24-1.63.56-2.72.64c-1.09.09-3.14-.07-4.17-1.39-1.02-1.32-.97-2.46-.94-3.22,0,0,6.85.03,7.32,0M28.41,19.19c.36-1.09,1.4-1.73,1.89-1.85.48-.12,2.06-.31,2.87.99.81,1.3.45,2.42.45,2.42h-5.55s-.02-.47.34-1.56"/>
  <path class="cls-2" d="M23.57,30.84l-6.61-22.19h-4.3c-.13,0-.24.09-.26.22-.06.39-.06,1.1-.06,1.1l-4.04,14.22-1.76,6.13s-.12.41-.14.47c-.01.06-.02.18.04.23.06.05.13.04.13.04h3.07s.13,0,.19-.05c.06-.05.07-.16.07-.16l1.58-6.1h6.54s1.57,5.7,1.64,5.92c.07.22.07.28.16.34.09.06.2.05.2.05h1.57s1.88,0,1.95-.05c.07-.06.03-.17.03-.17M12.34,21.39l2.4-9.59,2.4,9.59h-4.79Z"/>
</svg>