<?xml version="1.0" encoding="UTF-8"?>
<svg id="Ressources" xmlns="http://www.w3.org/2000/svg" viewBox="0 0 48.91 48.87">
  <defs>
    <style>
      .cls-1 {
        fill: #fff;
      }
    </style>
  </defs>
  <path class="cls-1" d="M24.8,26.43c-2.2,6.37-4.4,12.75-6.6,19.12,4.36,1.34,9.32,1.3,13.6-.39-2.33-6.24-4.66-12.49-6.99-18.73M4.36,15.57c-4.89,10.67-.09,23.72,10.47,28.66-3.49-9.55-6.98-19.11-10.47-28.66M43.78,14.01c.16,2.39.05,4.76-.54,7.09-2.56,7.45-5.12,14.9-7.68,22.35,10.17-5.75,13.99-19.22,8.22-29.44M22.94,2.47c-6.71.41-13.28,4.3-16.87,9.93,1.49.32,7.16-.34,7.58-.25.81.19,1.72,2.22-2.64,1.96-.02.05-.03.1-.05.15,2.69,7.91,5.38,15.81,8.07,23.72,1.61-4.81,3.23-9.62,4.84-14.43-1.14-3.13-2.28-6.26-3.42-9.39-.69-.17-2.93.07-3.13-.78-.44-1.89,2.39-.97,4.65-.93,2.8-.07,5.61-.13,8.41-.2.49.24.64,1.21,0,1.57-.71.4-3,.05-2.89.54,2.66,7.81,5.31,15.62,7.97,23.43.75-3.22,3.44-10.14,3.77-12.67.76-5.99-2.57-8.22-3.52-11.05-1.01-3.03.36-5.65,3.62-5.87-4.47-3.98-10.36-6.09-16.38-5.72M23.43.02c19.23-.77,31.92,20.25,22.06,36.93-8.86,14.97-30.33,16.06-40.69,2.05C-6.94,23.15,4.23.79,23.43.02"/>
</svg>