<?xml version="1.0" encoding="UTF-8"?>
<svg id="Ressources" xmlns="http://www.w3.org/2000/svg" viewBox="0 0 43.58 40.08">
  <defs>
    <style>
      .cls-1 {
        fill: #fff;
      }

      .cls-2 {
        fill: #114172;
      }
    </style>
  </defs>
  <rect class="cls-1" x="0" y="0" width="43.58" height="40.08"/>
  <path class="cls-2" d="M15.09,8.82c-.07-.15-.19-.16-.19-.16h-2.97s-.26-.01-.32.08c-.06.1-.04.25-.04.25v21.34s-.02.41.06.53c.08.12.15.11.15.11,0,0,3.02.01,3.12,0,.1-.01.21-.06.25-.14.04-.08.06-.25.06-.25l-.03-21.12s.03-.38-.09-.63"/>
  <path class="cls-2" d="M31.94,8.74c-.09-.13-.2-.07-.2-.07,0,0-.76.03-1.52,0h-1.58s-.24,0-.32.09c-.08.08-.1.13-.1.13l.03,5.39s-2.58.19-4.05.55c-1.46.36-4.03,2.56-4.79,4.6-.76,2.05-.76,5.98.33,8.18,1.09,2.2,3.4,3.8,6.78,3.82,3.38.03,5.5-1.37,5.5-1.37V9.09s.02-.23-.07-.36M28.22,27.9s-.62.21-1.27.19c-.65-.02-4.13.08-4.28-4.6-.16-4.68,1.86-5.4,2.41-5.63.56-.24,2.13-.36,3.14-.33v10.38Z"/>
</svg>