<?xml version="1.0" encoding="UTF-8"?>
<svg id="Ressources" xmlns="http://www.w3.org/2000/svg" viewBox="0 0 43.58 40.08">
  <defs>
    <style>
      .cls-1 {
        fill: #fff;
      }

      .cls-2 {
        fill: #114172;
      }
    </style>
  </defs>
  <rect class="cls-1" x="0" y="0" width="43.58" height="40.08"/>
  <path class="cls-2" d="M32.78,22.56h-.02c0-1.5,0-3,0-4.5,0-.3-.1-.45-.4-.52-1.7-.36-3.73.45-4.52,2.5-.5,1.31-.54,2.65-.34,3.99.37,2.55,1.88,4.01,4.55,3.69.65-.08.73-.15.73-.81,0-1.45,0-2.9,0-4.35M36.27,19.35c0,2.92,0,5.84,0,8.76,0,.17,0,.33,0,.5.02.99.03,1-.9,1.35-1.98.75-4.02.98-6.09.54-2.55-.54-4.18-2.16-4.9-4.62-.67-2.32-.67-4.66.36-6.9,1.21-2.63,3.31-4.06,6.19-4.29.43-.04.87-.04,1.3-.01.43.02.6-.12.59-.57-.02-1.39,0-2.77-.02-4.16,0-.46.14-.63.6-.62.77.02,1.54.03,2.3,0,.44-.01.57.15.57.59-.02,3.14,0,6.28,0,9.41"/>
  <path class="cls-2" d="M15.1,17.55c.31-.66.55-1.18.8-1.69.93-1.99,1.87-3.98,2.78-5.98.15-.32.35-.46.69-.46.82,0,1.64,0,2.45,0,.46,0,.54.14.33.55-1.6,3.07-3.2,6.15-4.81,9.22-.19.35-.18.63,0,.97,1.72,3.31,3.43,6.63,5.15,9.94.06.11.1.24.19.44-.25.04-.45.09-.65.09-.83.01-1.67-.02-2.5.02-.48.02-.73-.17-.93-.58-1.15-2.44-2.32-4.87-3.48-7.31-.07-.14-.15-.28-.29-.54-.23.49-.42.87-.59,1.25-1,2.16-2,4.32-2.98,6.49-.22.49-.53.7-1.08.68-.91-.04-1.83-.01-2.87-.01.29-.59.51-1.06.75-1.52,1.48-2.86,2.95-5.71,4.46-8.56.22-.42.2-.75-.01-1.16-1.62-3.16-3.21-6.32-4.82-9.49-.05-.1-.09-.21-.16-.39.2-.03.37-.09.54-.09.9,0,1.8,0,2.7,0,.34,0,.54.13.69.45,1.1,2.37,2.23,4.73,3.34,7.09.07.15.15.29.3.59"/>
</svg>