<?xml version="1.0" encoding="UTF-8"?>
<svg id="Calque_1" data-name="Calque 1" xmlns="http://www.w3.org/2000/svg" viewBox="0 0 35 35">
  <defs>
    <style>
      .cls-1 {
        fill: #0a1a2d;
      }

      .cls-2 {
        fill: #9cf;
      }
    </style>
  </defs>
  <g>
    <path class="cls-1" d="M13.15,18.43c.28.03.57.06.88.09.35.04.71.07,1.09.07,1.59,0,2.91-.25,3.94-.73,1.09-.51,1.91-1.3,2.46-2.34.52-.99.81-2.23.86-3.66.09-1.43-.08-2.54-.52-3.41-.44-.86-1.01-1.51-1.7-1.95-.66-.41-1.36-.68-2.08-.79-.65-.1-1.18-.15-1.62-.15-.64,0-1.21.08-1.7.24-.62.2-1.11.63-1.46,1.28-.3.56-.47,1.34-.53,2.4l-.39,8.06c-.02.46.32.85.77.89ZM13.62,9.52c.05-.92.2-1.6.43-2.04.24-.45.56-.73.96-.86.41-.13.88-.2,1.43-.2.39,0,.89.05,1.49.14.6.09,1.19.31,1.75.67.56.35,1.03.89,1.4,1.61.37.72.51,1.71.43,2.97-.05,1.34-.31,2.44-.77,3.32-.46.88-1.15,1.53-2.06,1.97-.92.43-2.11.65-3.58.65-.34,0-.67-.02-.98-.06-.31-.04-.62-.07-.9-.1l.39-8.06Z"/>
    <path class="cls-1" d="M29.9,28.68c-.88,0-2.35-.06-2.9-.43-.41-.28-.85-.63-1.26-1.16-.26-.33-.54-.74-.86-1.21-.07-.1-.14-.21-.21-.32-.12-.19-.24-.38-.37-.59l-1.69-2.75c-.16-.26-.34-.52-.55-.77-.21-.25-.43-.49-.65-.73-.22-.24-.45-.44-.69-.61-.24-.17-.47-.31-.71-.41,1.55-.45,2.84-1.05,3.89-1.81,1.05-.76,1.85-1.64,2.42-2.63.56-1,.89-2.04.96-3.15.18-2.1-.14-3.76-.98-4.99-.84-1.23-2.08-2.12-3.73-2.67-1.58-.53-3.46-.79-5.64-.79-.1,0-.2,0-.3,0-1.83.03-3.68.04-5.52.04-.53,0-1.06,0-1.6.01.21.26.37.54.47.85.38,0,.76,0,1.13,0,1.86,0,3.73-.01,5.53-.04h.29c2.08,0,3.88.25,5.37.74,1.48.49,2.56,1.26,3.3,2.34.72,1.06,1,2.55.84,4.45-.07.97-.36,1.9-.85,2.78-.5.88-1.23,1.68-2.18,2.36-.96.7-2.18,1.26-3.63,1.68-.34.1-.59.4-.62.76-.02.36.18.69.5.84.18.08.37.19.55.32.19.14.38.31.57.5.21.23.42.46.62.69.18.22.34.44.48.67l1.69,2.75c.13.21.26.41.38.6l.21.33c.32.49.63.92.9,1.27.4.52.87.95,1.46,1.35.2.14.8.54,3.09.57l-.1.87h-7.22c-.31-.28-.62-.65-.94-1.11-.43-.62-.88-1.34-1.33-2.15l-2.63-4.71c-.3-.54-.58-1.02-.85-1.41-.27-.4-.54-.75-.8-1.03-.16-.18-.39-.28-.64-.28h-2.04c-.45,0-.83.35-.85.81l-.24,4.22c-.03.71-.07,1.39-.13,2.03-.06.63-.12,1.12-.17,1.45-.04.26.04.52.22.71.16.17.39.27.62.27.03,0,.05,0,.08,0,.27-.02.62-.04,1.05-.06l.53-.02-.87,1.27h-3.82c.5-1.01.86-2.5.94-4.55.01-.28.02-.57.02-.86h0c0-.16,0-.31-.01-.46-.12-2.15-1.05-3.62-1.21-4.08-.01-.04-.02-.06-.02-.09h.12c.26,0,.47-.21.47-.47s-.21-.47-.47-.47h-.43v-.7c0-.78,1.74-.91,1.74-.91,0,0,.43-1.51.43-2.64-1.15,0-1.93-1.54-2.33-2.62-.22-.59-.33-1.04-.33-1.04h-.63v2.66s.01,0,.02,0c.01,0,.03.01.04.02.28.12.47.39.47.71,0,.05,0,.11-.02.16-.06.29-.29.52-.57.59-.06.02-.13.03-.2.03-.38,0-.7-.27-.77-.63-.01-.05-.02-.1-.02-.16,0-.32.2-.59.47-.71.02,0,.04-.02.06-.02v-2.66h-.63s-.88,3.66-2.66,3.66c0,1.13.43,2.64.43,2.64,0,0,1.74.12,1.74.91v.7h-.43c-.26,0-.47.21-.47.47s.21.47.47.47h.12s-.01.05-.02.09c-.16.47-1.09,1.93-1.21,4.08,0,.15-.01.3-.01.45h0c0,.3,0,.59.02.87.04,1.06.16,1.97.33,2.74.07.3.14.58.22.83.12.37.25.68.39.97.17.34.35.62.54.85.06.08.13.16.19.23,0,0,0,0,.01.01.03.03.06.06.09.09.02.02.04.04.06.05.02.01.03.03.05.04.03.03.06.05.1.07,0,0,.01,0,.02.01.17.12.34.2.51.25,0,0,0,0,0,0,.04.01.08.02.13.03h.03s.07.02.1.02c.04,0,.08,0,.12,0,0,0,.01,0,.02,0h0s0,0,.01,0c0,0,0,0,.01,0h0s.01,0,.02,0c.04,0,.08,0,.12,0,.03,0,.07,0,.1-.01.01,0,.02,0,.03,0,.04,0,.08-.02.13-.03,0,0,0,0,0,0,.17-.05.34-.13.51-.25,0,0,.01,0,.02-.01.03-.02.06-.05.1-.07.02-.01.03-.03.05-.04.02-.02.04-.03.06-.05.03-.03.06-.06.09-.09,0,0,0,0,.01-.01.07-.07.13-.15.19-.23h4.81l2.06-3.03c-.18,0-.49,0-.9.02-.42.01-.85.03-1.3.04-.45.01-.81.03-1.1.06.05-.34.11-.84.18-1.49.07-.65.11-1.35.14-2.08l.24-4.21h2.04c.24.26.48.58.73.94.25.37.52.81.81,1.34l2.63,4.72c.47.84.93,1.58,1.38,2.22.45.64.89,1.13,1.34,1.47h8.28l.31-2.59s-.28.01-.68.01Z"/>
  </g>
  <path class="cls-2" d="M9.99,4.56c-.1-.31-.26-.59-.47-.85-.01-.01-.02-.03-.03-.05-.46-.54-1.07-.82-1.82-.82-.68,0-1.29.27-1.83.82-.02.02-.04.05-.06.07-.09.09-.16.18-.24.28-.35.47-.55,1.02-.59,1.65-.02.77.2,1.42.66,1.95.46.53,1.08.8,1.85.8.24,0,.47-.04.69-.1.33-.09.63-.24.9-.46.1-.08.19-.15.28-.25.5-.53.76-1.18.78-1.95.02-.4-.02-.77-.13-1.11Z"/>
</svg>