<?xml version="1.0" encoding="UTF-8"?>
<svg id="Calque_1" data-name="Calque 1" xmlns="http://www.w3.org/2000/svg" viewBox="0 0 1378.77 589.61">
  <defs>
    <style>
      .cls-1 {
        fill: #fff;
      }

      .cls-2 {
        fill: #151f35;
      }

      .cls-3 {
        fill: #69a7ef;
      }
    </style>
  </defs>
  <g>
    <path class="cls-3" d="M363.39,129.13l-1.48-8.92c-6.71-40.45-38.98-65.68-77.59-61.45-7.69-4.75-16.93-7.02-26.49-6.04v-.03s-.34.07-.34.07c-.77.09-1.53.15-2.3.27l-6.19,1.03c-2.59.43-5.07,1.12-7.45,1.98l-24.1,4.95-36.78,7.56-49.07,10.09s-.05,0-.08.01c-1.94.32-3.82.73-5.69,1.17h-.04s0,.01,0,.01c-37.52,9.02-59.61,43.03-52.97,83.01l2.75,16.6c6.97,41.99,41.77,67.52,82.75,60.72,13.59-2.26,25.19-7.3,34.44-14.64,10.59,3.39,22.38,4.32,34.66,2.28.17-.03.35-.06.52-.09,4.45,1.73,9.24,2.71,14.19,2.84,9.34,10.39,23.59,15.97,38.4,13.51l6.2-1.03c18.14-3.01,31.66-17.15,34.73-34.27,30.74-12.3,47.94-43.51,41.95-79.63Z"/>
    <path class="cls-1" d="M117.3,172.51l-2.75-16.6c-3.15-18.95,6.05-32.57,23.89-35.53s28.34,5.1,33.32,23.62l-6.19,1.03c-4.04-15.11-11.4-21.15-26.14-18.7-14.37,2.38-21.29,12.83-18.68,28.56l2.75,16.6c2.61,15.73,12.53,23.38,26.9,20.99,14.99-2.49,19.72-10.78,18.7-26.14l6.19-1.03c1.31,19.39-5.95,30.13-23.91,33.12-17.84,2.96-30.94-6.96-34.08-25.91Z"/>
    <path class="cls-1" d="M209.21,109.65c-11.64,1.93-17.1,8.95-16.57,21.33l-6.19,1.03c-.84-15.77,7.04-25.86,21.78-28.31,16.97-2.82,28.32,5.74,31.26,23.45l9.97,60.08-6.19,1.03-2.51-15.11c-3.08,6.75-9.98,11.2-20.26,12.91-15.73,2.61-28.26-5.37-30.6-19.49-2.34-14.12,6.93-25.72,22.67-28.33,10.28-1.71,18.25.28,23.34,5.67l-2.61-15.73c-2.38-14.37-10.58-20.77-24.08-18.53ZM219.5,180.12c13.87-2.3,20.71-10.18,18.82-21.58-1.89-11.4-10.91-16.65-24.78-14.34-12.26,2.04-19.25,10.58-17.46,21.35,1.79,10.78,11.16,16.6,23.42,14.57Z"/>
    <path class="cls-1" d="M273.54,163.64l6.25,37.66-6.19,1.03-17.68-106.53,6.19-1.03,3.62,21.8c3.37-8.07,10.58-13.72,21.11-15.47,17.59-2.92,30.22,7.2,33.34,26.03l1.48,8.92c3.12,18.83-5.56,32.49-23.14,35.41-10.53,1.75-19.18-1.27-24.97-7.82ZM297.27,165.55c14.25-2.36,20.76-12.99,18.19-28.47l-1.48-8.92c-2.57-15.48-12.16-23.44-26.41-21.07-14.37,2.38-21.27,12.95-18.68,28.56l1.48,8.92c2.59,15.61,12.53,23.38,26.9,20.99Z"/>
  </g>
  <g>
    <path class="cls-2" d="M607.79,498.11v-11.64c0-11.97,6.92-19.41,18.05-19.41s17.15,5.95,17.92,17.66h-6.47c-.71-8.02-3.95-11.52-11.52-11.52s-11.52,4.85-11.52,13.26v11.84c0,8.41,4.27,13.26,11.52,13.26,7.83,0,10.87-3.69,11.52-11.71h6.47c-.78,11.84-6.66,17.66-18.05,17.66s-17.92-7.44-17.92-19.41Z"/>
    <path class="cls-2" d="M651.72,466.41h6.34v15.98c2.26-2.72,5.69-4.33,9.64-4.33,8.48,0,13.39,5.37,13.39,14.88v27.17h-6.34v-26.78c0-6.15-2.72-9.19-7.96-9.19s-8.73,3.56-8.73,9.06v23.03h-6.34v-49.82Z"/>
    <path class="cls-2" d="M704.13,479.8c-5.05,0-7.57,2.46-8.22,7.96h-6.34c.84-8.93,5.76-13.59,14.49-13.59,9.51,0,14.82,5.31,14.82,14.69v31.25h-6.4v-6.34c-2.26,2.2-5.56,3.3-10.09,3.3-8.22,0-13.91-5.11-13.91-12.49s5.56-12.36,14.17-12.36c4.27,0,7.5,1.03,9.83,3.17v-6.6c0-5.89-2.85-8.99-8.35-8.99ZM701.47,456.12h6.79l8.22,14.17h-6.21l-5.37-9.7-5.37,9.7h-6.28l8.22-14.17ZM703.42,511.83c5.89,0,9.06-2.65,9.06-7.31s-3.17-7.38-9.06-7.38c-5.3,0-8.6,2.85-8.6,7.38s3.3,7.31,8.6,7.31Z"/>
    <path class="cls-2" d="M730.72,505.42v-18.76h-5.89v-6.08h5.89v-9.64h6.34v9.64h10.68v6.08h-10.68v18.7c0,6.53,2.01,8.93,7.44,8.93h3.24v5.82h-3.69c-9.45,0-13.33-4.53-13.33-14.69Z"/>
    <path class="cls-2" d="M753.43,503.61v-12.94c0-10.16,6.15-16.5,15.98-16.5s15.92,6.21,15.92,16.24v7.83h-25.56v5.3c0,6.86,3.49,10.74,9.64,10.74s8.99-3.11,9.58-9.71h6.34c-.84,10.42-6.02,15.53-15.92,15.53s-15.98-6.34-15.98-16.5ZM778.99,493.19v-3.04c0-6.6-3.49-10.42-9.58-10.42s-9.64,3.88-9.64,10.74v2.72h19.22Z"/>
    <path class="cls-2" d="M807.32,479.8c-5.05,0-7.57,2.46-8.22,7.96h-6.34c.84-8.93,5.76-13.59,14.49-13.59,9.51,0,14.82,5.31,14.82,14.69v31.25h-6.4v-6.34c-2.26,2.2-5.56,3.3-10.09,3.3-8.22,0-13.91-5.11-13.91-12.49s5.56-12.36,14.17-12.36c4.27,0,7.5,1.03,9.83,3.17v-6.6c0-5.89-2.85-8.99-8.35-8.99ZM806.61,511.83c5.89,0,9.06-2.65,9.06-7.31s-3.17-7.38-9.06-7.38c-5.3,0-8.6,2.85-8.6,7.38s3.3,7.31,8.6,7.31Z"/>
    <path class="cls-2" d="M859.86,520.11h-6.34v-8.22c-2.26,2.65-5.63,4.34-9.45,4.34-8.48,0-13.33-5.37-13.33-14.88v-23.29h6.34v23.1c0,6.15,2.65,9.25,7.83,9.25s8.6-3.62,8.6-9.12v-23.23h6.34v42.05Z"/>
    <path class="cls-2" d="M882.31,500.96l-9.19,15.27h-7.12l12.16-20.64-12.87-21.42h7.12l10.16,16.56,9.77-16.56h7.18l-12.87,21.87,12.1,20.19h-7.18l-9.25-15.27Z"/>
    <path class="cls-2" d="M920.03,503.61v-12.94c0-10.16,6.15-16.5,15.98-16.5s15.92,6.21,15.92,16.24v7.83h-25.56v5.3c0,6.86,3.49,10.74,9.64,10.74s8.99-3.11,9.58-9.71h6.34c-.84,10.42-6.02,15.53-15.92,15.53s-15.98-6.34-15.98-16.5ZM945.59,493.19v-3.04c0-6.6-3.49-10.42-9.58-10.42s-9.64,3.88-9.64,10.74v2.72h19.22Z"/>
    <path class="cls-2" d="M960.21,474.17h6.34v8.22c2.26-2.72,5.69-4.33,9.64-4.33,8.48,0,13.39,5.37,13.39,14.88v27.17h-6.34v-26.78c0-6.15-2.72-9.19-7.96-9.19s-8.73,3.56-8.73,9.06v23.03h-6.34v-42.05Z"/>
    <path class="cls-2" d="M1015.08,474.17h6.34v8.22c2.2-2.72,5.5-4.33,9.06-4.33,5.11,0,8.99,2.2,11.06,6.21,1.94-3.69,6.28-6.21,11-6.21,8.15,0,12.94,5.5,12.94,14.88v27.17h-6.34v-26.78c0-6.02-2.52-9.19-7.44-9.19s-8.22,3.69-8.22,9.06v23.03h-6.34v-22.9c0-6.02-2.59-9.19-7.44-9.19s-8.28,3.69-8.28,9.06v23.03h-6.34v-42.05Z"/>
    <path class="cls-2" d="M1072.98,472.68c0-2.78,2.01-4.59,5.05-4.59s5.11,1.81,5.11,4.59-2.07,4.66-5.11,4.66-5.05-1.81-5.05-4.66ZM1074.86,481.81h6.34v38.3h-6.34v-38.3Z"/>
    <path class="cls-2" d="M1088.77,504.9h6.34c.26,6.47,3.3,9.57,9.38,9.57,5.11,0,8.35-2.91,8.35-7.44,0-4.98-1.94-6.53-9.77-7.63-9.32-1.29-13-4.72-13-12.16s5.56-13.07,13.78-13.07c8.8,0,13.85,5.05,13.85,13.85h-6.34c-.26-5.82-2.46-8.22-7.44-8.22-4.59,0-7.57,2.91-7.57,7.25s1.68,5.69,7.96,6.54c10.93,1.55,14.82,4.92,14.82,12.94s-5.82,13.59-14.62,13.59c-10.03,0-15.72-5.37-15.72-15.2Z"/>
    <path class="cls-2" d="M1124.29,504.9h6.34c.26,6.47,3.3,9.57,9.38,9.57,5.11,0,8.35-2.91,8.35-7.44,0-4.98-1.94-6.53-9.77-7.63-9.32-1.29-13-4.72-13-12.16s5.56-13.07,13.78-13.07c8.8,0,13.85,5.05,13.85,13.85h-6.34c-.26-5.82-2.46-8.22-7.44-8.22-4.59,0-7.57,2.91-7.57,7.25s1.68,5.69,7.96,6.54c10.93,1.55,14.82,4.92,14.82,12.94s-5.82,13.59-14.62,13.59c-10.03,0-15.72-5.37-15.72-15.2Z"/>
    <path class="cls-2" d="M1160.33,472.68c0-2.78,2.01-4.59,5.05-4.59s5.11,1.81,5.11,4.59-2.07,4.66-5.11,4.66-5.05-1.81-5.05-4.66ZM1162.21,481.81h6.34v38.3h-6.34v-38.3Z"/>
    <path class="cls-2" d="M1176.76,499.73v-5.17c0-10.29,6.21-16.5,15.98-16.5s15.92,6.28,15.92,16.5v5.17c0,10.22-6.15,16.5-15.92,16.5s-15.98-6.21-15.98-16.5ZM1192.74,510.4c6.02,0,9.58-3.95,9.58-10.74v-4.85c0-6.79-3.56-10.67-9.58-10.67s-9.64,3.82-9.64,10.67v4.85c0,6.86,3.56,10.74,9.64,10.74Z"/>
    <path class="cls-2" d="M1216.94,474.17h6.34v8.22c2.26-2.72,5.69-4.33,9.64-4.33,8.48,0,13.39,5.37,13.39,14.88v27.17h-6.34v-26.78c0-6.15-2.72-9.19-7.96-9.19s-8.73,3.56-8.73,9.06v23.03h-6.34v-42.05Z"/>
    <path class="cls-2" d="M1276.01,510.86c2.91,0,4.85,1.88,4.85,4.66s-1.94,4.59-4.85,4.59-4.85-1.88-4.85-4.59,2.01-4.66,4.85-4.66ZM1272.78,467.05h6.47v37.46h-6.47v-37.46Z"/>
  </g>
  <g>
    <path class="cls-2" d="M102.15,323.29c0-59.29,50.86-101.72,107.53-101.72h7.56c21.8,0,58.12,6.1,58.12,18.6v17.15c0,5.23-5.81,8.72-10.17,3.78-4.36-4.94-13.37-22.09-55.51-22.09-45.63,0-75.85,37.2-75.56,84.28.29,47.66,29.35,90.09,75.56,90.09,40.4,0,52.89-24.41,65.1-58.71l43.59-130.2h24.99c4.36,0,6.68,2.32,8.14,6.97l44.17,133.1c4.07,11.62,6.39,22.09,16.27,40.98,26.16,50.86,69.75,80.21,151.7,66.26l8.72-1.74c5.81-.87,5.23,7.56.87,10.17-.58.29-2.91,1.74-6.1,3.49h-.29c0,.29-.29.29-.58.58q-.29,0-.58.29c-.29,0-.29.29-.58.29s-.58.29-.87.29c0,.29-.29.29-.29.29-.29.29-.58.29-.87.58h-.29c-.29.29-.87.29-1.16.58-15.11,7.27-31.39,10.75-48.24,11.04h-1.45c-53.76-.29-110.44-34.58-131.36-90.67l-14.24-38.36-3.49-10.46h-71.49c-14.24,42.43-28.48,72.36-81.66,72.65-56.67-.29-107.53-48.24-107.53-107.53ZM357.02,340.73l-29.93-90.09-30.22,90.09h60.16Z"/>
    <path class="cls-2" d="M569.18,265.75c0-11.04-.29-13.08-2.91-15.98-.87-.87-1.45-1.45-2.33-2.32l-.29-.29c-.87-.87-1.45-1.45-2.33-2.32-1.74-1.45-3.2-2.33-6.39-2.62h-47.08v145.02c0,13.95.58,13.66,5.52,18.6,4.07,4.07,7.85,7.56,12.79,12.21,4.65,4.36,1.16,9.88-4.07,9.88h-57.54c-5.23,0-8.72-5.52-4.07-9.88,4.94-4.65,8.72-8.14,12.79-12.21,4.94-4.94,5.52-4.65,5.52-18.6v-145.02h-30.81c-13.95,0-13.08.29-18.31,5.52-4.07,4.07-7.56,7.85-12.21,12.79-4.36,4.65-10.17,1.16-10.17-4.07v-32.26l179.02.29h26.16c5.23,0,8.72,6.1,4.07,10.46-4.94,4.65-8.72,8.14-12.79,12.21-4.94,4.94-5.52,4.65-5.52,18.6v51.44h88.06v-51.44c-.29-14.24-.58-13.66-5.52-18.89-4.07-4.07-7.85-7.55-12.79-12.21-4.65-4.36-1.16-10.46,4.07-10.46h43.3v.29h14.24c5.23,0,8.72,6.1,4.07,10.46-4.94,4.65-8.72,8.14-12.79,12.21-5.81,5.81-5.52,4.36-5.52,25.57v113.63c0,14.24.29,13.66,5.52,18.6,4.07,4.07,7.85,7.56,12.79,12.21,4.65,4.36,1.16,10.46-4.07,10.46h-57.54c-5.23,0-8.72-6.1-4.07-10.46,4.94-4.65,8.72-8.14,12.79-12.21,4.94-4.94,5.23-4.36,5.52-18.6v-51.73h-88.06v59c.29,6.97,1.45,7.55,5.52,11.33,4.07,4.07,7.85,7.56,12.79,12.21,4.65,4.36,1.16,10.46-4.07,10.46h-14.24v.29h-29.06v-.29h-14.24c-5.23,0-8.72-6.1-4.07-10.46,4.94-4.65,8.72-8.14,12.79-12.21,5.81-5.81,5.52-4.36,5.52-25.57v-113.63Z"/>
    <path class="cls-2" d="M915.6,427.92h-59.58c-5.23,0-8.72-5.81-4.07-10.17,4.94-4.65,8.72-8.14,12.79-12.21,3.78-3.49,6.68-4.36,2.91-18.31l-9.59-29.06h-71.78l-9.59,29.06c-4.07,13.95-.87,14.82,2.62,18.31,4.07,4.07,7.85,7.56,12.79,12.21,4.65,4.36,1.16,10.17-4.07,10.17h-46.21c-5.23,0-8.72-5.52-4.07-9.88,4.94-4.65,8.72-8.14,12.79-12.21,2.91-2.91,4.65-6.97,7.27-14.53l55.51-166.81h24.99c4.36,0,6.68,2.32,8.14,6.97l52.89,158.97c2.91,7.85,4.65,12.21,7.56,15.11,4.07,4.07,7.85,7.56,12.79,12.21,4.65,4.36,1.16,10.17-4.07,10.17ZM852.24,340.73l-30.22-90.09-29.93,90.09h60.16Z"/>
    <path class="cls-2" d="M1100.72,279.7c0,28.19-19.76,41.85-40.4,50.57l22.09,63.36c2.62,6.39,4.36,9.88,6.98,12.5,4.07,4.07,7.85,7.56,12.79,12.21,4.65,4.36,1.16,9.59-4.07,9.59h-59.29c-5.23,0-8.72-5.23-4.07-9.59,4.94-4.65,8.72-8.14,12.79-12.21,4.07-3.78,6.68-4.36,1.45-21.51l-17.44-49.7h-58.71v52.31c.29,13.95.58,13.66,5.52,18.6,4.07,4.07,7.85,7.56,12.79,12.21,4.65,4.36,1.16,9.88-4.07,9.88h-57.54c-5.23,0-8.72-5.52-4.07-9.88,4.94-4.65,8.72-8.14,12.79-12.21,5.23-4.94,5.52-4.65,5.52-18.6v-121.48c0-13.95-.29-13.66-5.52-18.6-4.07-4.07-7.85-7.56-12.79-12.21-4.65-4.36-1.16-10.46,4.07-10.46h110.15c27.9,0,61.03,18.6,61.03,55.22ZM972.85,241.92v75.56h66.84c12.79,0,29.06-12.79,29.06-37.78,0-20.92-16.27-37.78-29.06-37.78h-66.84Z"/>
    <path class="cls-2" d="M1261.43,398.27c3.49-4.65,6.98-11.04,11.62-15.98,4.36-4.65,10.17-1.16,10.17,5.52v40.11h-161c-5.23,0-8.72-5.23-4.07-9.59,4.94-4.65,8.72-8.14,12.79-12.21,5.23-4.94,5.52-4.65,5.52-18.6v-121.48c0-13.95-.29-13.66-5.52-18.6-4.07-4.07-7.85-7.56-12.79-12.21-4.65-4.36-1.16-10.75,4.07-10.75h161.29v31.68c0,5.23-5.81,8.72-10.17,4.07-4.65-4.94-8.14-8.72-12.21-12.79-4.94-4.94-4.36-5.52-18.02-5.52h-77.6v75.56h24.41c13.95,0,13.37-.29,18.31-5.52,4.07-4.07,7.56-7.85,12.21-12.79,4.36-4.65,10.17-1.16,10.17,4.07v45.92c0,5.23-5.81,8.72-10.17,4.07-4.65-4.94-8.14-8.72-12.21-12.79-4.94-4.94-4.36-5.52-18.02-5.52h-24.7v75.56h70.04c17.73,0,17.44-1.74,25.86-12.21Z"/>
  </g>
</svg>