<?xml version="1.0" encoding="UTF-8"?>
<svg id="Calque_1" data-name="Calque 1" xmlns="http://www.w3.org/2000/svg" viewBox="0 0 1223 538">
  <defs>
    <style>
      .cls-1 {
        fill: #fff;
      }
    </style>
  </defs>
  <path class="cls-1" d="M993.15,185.25c2.06,3.25-3.64,12.59-1.8,17-4.02,12.6-4.53,25.84-6.79,38.93-1.27,7.35.42,16.11-8.96,7.85,3.9-8.04,4.68-18.9,5.93-27.97,1.29-9.33,1.82-18.21,3.8-26.76.56-2.42.59-4.96,1.38-7.34l-2.32-1.13c-4.13,2.94-9.28,5.74-13.97,7.61-4.47,1.78-15.64,5.68-20,6.34-2.61.39-5.47,1.19-5.99-2.32-.06-2.32,3.5-4.83,5.43-5.82,2.62-1.34,27.08-9.96,29.66-10.38,3.39-.54,11.93,1.32,13.62,4Z"/>
  <path class="cls-1" d="M889.07,156.37l.11,5.37-8.75,1.61c2.27,3.9,1.13,6.47,1.48,9.46.24,2.04,1.3,3.91,1.41,5.65.09,1.36-6.71,5.73,1.28,6.6l-3.27,2.92c4.49,1.7,10.41-.39,13.86-.12,6.89.55,14.64,3.32,21.76,4.3,6.19.85,16.9-2.58,15.27,7.42-13.21-.29-26.43-.29-39.56-2.25-2.98-.44-19.13-3.26-19.05-6.26l3.33-2.56c.1-1.63-.4-3.07-1.1-4.51-3.15-6.48-4.85,1.13-8.24-3.92l5.32-3.69.57-19.49c5.94,1.03,9.65-2.26,15.58-.52ZM911.52,193.91c-3.46-2.37-18.29-1.32-23.3-1.69l23.19,4.73c2.76.88.86-2.54.11-3.04Z"/>
  <path class="cls-1" d="M693.19,349.57c5.4-5.94,11.23-11.59,16.62-17.53,5.73-6.32,12.29-17.7,20.53-19.89.96-.25,2.47-1.61,2.99.66.2.88-3.38,5.77-4.27,6.88-6.9,8.7-14.5,16.27-22.25,24.17-2.74,2.79-13.77,17.39-17.8,14.82l2.04-5.67-3.38.11c1.8-2.41-.66-3.78-.87-5.2-1.22-8.15,1.47-17.45,1.99-25.68.31-4.94-1.95-21.88,2.44-24.78,10.22-6.74,2.33,18.1,2.02,21.35-.93,9.65.35,20.93-.07,30.75Z"/>
  <path class="cls-1" d="M1006.98,97.1c1.53,1.96-4.76,25.61-5.5,29.98-.78,4.64-.85,8.57-1.76,13.51-1.11,6.02-4.41,31.77-7.84,34.4l-3.41-2.12-1.04,2.27c-3.54-6.6.67-8.88,1.53-13.16,2.94-14.58,4.58-31.92,8.05-48.78,1.51-7.36-1.48-17.81,9.97-16.1ZM994.21,145.74c2.81-.97,2.13-4.34,1.97-6.79l-1.1.04-.88,6.75Z"/>
  <path class="cls-1" d="M512.28,310.18c-5.46.66-3.35,4.57-4.29,7.19-3.25,9.09-4.55,18.29-7.27,28.05-.57,2.03-4.04,13.02-4.57,13.88-.89,1.42-3.37,1.48-4.89,2l-1.81-2.5c1.04-2.88.58-5.94,1.02-8.85,2.08-13.66,6.81-27.92,9.68-40.88.42-1.88-.02-3.31-.41-5.09,6.48-2.84,8.21.31,12.48,4.56l.07,1.63ZM503.68,320.6l.92-5.64-3.14,4.11v1.6s2.23-.07,2.23-.07ZM496.91,349.99l-.71-4.45c-1.68,1.27-1.86,2.47-1.52,4.53l2.23-.08Z"/>
  <path class="cls-1" d="M91.67,313.34c-.76,3.09,3.6,4.29,3.69,4.88.24,1.56-2.17,10.7-2.35,13.97-.99,19.06,4.93,35.94,2.21,56.62-.17,1.3.14,2.52-1.7,2.81,1.04-2.75-2.22-3.47-2.37-4.07-3.01-11.78-.33-26.95-1.43-38.92-.62-6.72-5.81-18.1-6.35-23.3-.08-.76.95-9.2,1.19-9.65.79-1.51,6.08-3.27,7.1-2.35Z"/>
  <path class="cls-1" d="M278.65,395.09l.2,3.25,2.13-1.16,7.24,19.5c1.06,3.32-7.96,10.06-9.52,8.56,1.5-8.73-4.11-15.54-3.67-23.42-3.69,2.85-9.44,3.84-12.98,6.1-1.39.89-4.27,5.52-5.45,6.52-1.62,1.37-11.36,9.6-12.07,9.93-2.05.95-6.88.04-9.55,1.34-.43-1.86.85-2.98,2.13-3.96,4.97-3.81,12.88-7.36,17.46-10.81,6.77-5.1,12.53-18.33,24.08-15.84Z"/>
  <path class="cls-1" d="M184.74,435.5l.31,5.49,8.97-.32-3.95,3.17c-15.5.08-30.49-2.13-45.72-4.77l-3.41-5.98,1.84-2.72c14.15-1.43,27.94,3.84,41.96,5.14Z"/>
  <path class="cls-1" d="M319.21,306.03c.93-.65,3.2-1.24,4.44-1.27-.86,2.09-4.65,5.63-6.57,4.16.95-.53,1.59-2.5,2.13-2.89-.82.49-2.35.44-3.68,1.4-6.07,4.41-10.56,10.37-15.33,16.1-2.28.54-1.96-.88-1.56-2.53.68-2.76,19.15-22,21.67-23.13,4.75-2.13,8.57,0,13.12-1.34.29-3.02-.04-2.83-2.37-3.82.86-1.13,1.69-1.99,3-2.62,4.17-2,22.41-8.6,26.45-9.04,3.26-.36,6.97.04,9.46,2.4l-11.02,5.97c-14.25,3.53-28.51,9.89-39.75,16.61ZM349.97,288.1l-6.67,1.37.04,1.09c2.46-.02,5.87.41,6.63-2.46Z"/>
  <path class="cls-1" d="M120.24,232.56c.87,8.15-5.98,5.6-6.4,5.95-.75.63-4.19,9.47-3.05,11.21l4.42-.73c-2.62,4.31-6.38,8.17-8.21,12.93-1.06,2.75-1.14,6.53-1.59,8.75-1.59,7.81-6.24,26.98-10.12,33.35-.87,1.43-1.79,2.75-3.74,2.46-.77-.82,1.96-15.34,2.65-17.54,1.75-5.52,5.36-8.7,6.8-15.31,2.42-11.16,2.4-23.53,6.16-34.23.21-.6,2.64-2.33,2.72-4.25l10.37-2.59Z"/>
  <path class="cls-1" d="M155.63,178.89c-1.76,1.84-2.81,9.56-8.84,10.24l1.11,4.16c-4.06,1.15-5.14,5.68-7.75,8.55l-14.45,25.58-9.02-.35c0-1.97,2.96-1.49,4.36-2.97,1.2-1.27,3.54-6.69,5.33-9.11,6.55-8.85,10.55-15.74,15.73-25.43,2.22-4.15,5.6-13.21,7.87-16.46,1.49-2.15,9.19-7.6,11.16-4.85,1.48,2.84.43,7.13-1.93,9.14-1.02.86-2.9.82-3.56,1.51Z"/>
  <path class="cls-1" d="M397.29,291.91l2.75-.15c1.18,2.98,2.07,8.87,3.29,11.45,1.75,3.72,7.21,8.41,8.94,10.96.93,1.37.06,4.07,2.2,5.18l2.68-5.11-2.25-.96c1.09-5.15,3.41-10.11,1.6-15.28l7.38.78c2.96,4.06-.9,18.67-2.24,16.97-.21-2.78-.1-5.62-.32-8.41-.11-1.36.7-4.19-1.25-3.86-2.32,9.06,1.65,20.76-4.04,28.17-2.2-1.41,2.1-3.8,1.51-4.51-.07-.09-1.39.55-2.17-.8-1.03-1.77-1.55-4.54-3.79-6.78l-4.3,2.32c-1.32-12.4-14.52-17.9-15.67-29.71l2.27,1.07-.11-3.4,2.12.85.63-2.06.76,3.29Z"/>
  <path class="cls-1" d="M958.65,401.55c-1.1-.89-11.19,5.53-12.91,6.81s-1.99,3.15-3.52,4.39c-4.35,3.54-7.04,2.81-12.24,2.17,2.76-6.49,11.64-8.9,17.33-12.55,2.81-1.8,9.85-9.36,12.72-8.72l16.26,43.14-3.38,2.3c-5.17-3.93-3.37-9.82-4.7-14.65-1.97-7.16-8.09-15.26-9.56-22.9Z"/>
  <path class="cls-1" d="M113.73,402.48c.74.54,1.16,2.11,2.15,2.87,1.82,1.39,12.61,9.18,13.03,9.88.71,1.2.24,2.87.39,4.24l-4.48-.4c1.7,1.29,2.52,3.62,4.07,4.93,2.54,2.15,6.19.84,5.26,5.39-1.56,1.87-36.15-25.32-39.74-27.69l3.12-7.97c5.26,3.19,11.18,5.12,16.21,8.76ZM123.54,415.22l-9.15-5.29c-2.15,2.6,6.76,7.37,8.67,7.54l.48-2.25Z"/>
  <path class="cls-1" d="M968.19,331.42c-.96,1.21-3.76,1.74-4.23-.18-.15-.6,1.57-10.5,1.9-12.24,3.09-15.89,8.67-31.28,12.45-46.84.51-2.1-.37-12.58,4.9-11.65,3.16.56.1,11.28-.62,13.46-5.73,17.29-6.5,30.77-10.53,47.52-.23.94-3.55,9.51-3.88,9.93Z"/>
  <path class="cls-1" d="M954.89,386.99c.19-14.95,4.76-29.97,6.1-44.94l7.86.2c3.61,3.11-.83,6.43-1.23,8.51-1.77,9.15-3.43,18.75-5.07,27.94-.28,1.58,1.13,3.09.53,4.75-.86,2.37-5.64,5.49-8.2,3.56ZM963.77,357.63c.45-.52,1.04-4.49.92-5.63-2.55.81-2.25,3.64-2.01,5.67.36-.07.96.12,1.09-.04Z"/>
  <path class="cls-1" d="M312.92,71.93l.13,3.35-4.44,1.28c2.8-1.04,5.4,1.85,7.29,1.87,1.9.03,4.2-1.76,6.5-1.29.32.07,4.51,4.29,4.7,4.66,2.59,4.77,10.89,23.34,11.84,27.95.69,3.34-.59,6.25-.75,9.47-6.47-.56-4.17-8.57-5.07-11.33-.47-1.45-2.68-2.66-3.58-4.38-4.1-7.84-8.45-15.6-12.09-23.66-17.35.32-34.11-4.89-51.49-3.98l.28-5.63c3.32-5.22,25.68.27,31.66.98,4.87.58,10.14-.43,15.04.71Z"/>
  <path class="cls-1" d="M1038.5,160.95c.19,1.57.19,2.76-.87,4.06-1.51,1.83-42.68,18.32-44.36,16.64-.19-1.55-.23-2.99.41-4.47,2.15-4.92,21.37-11.08,26.78-12.98,2.37-.83,4.2-2.72,6.76-3.43,3.13-.87,7.99.34,11.28.19Z"/>
  <path class="cls-1" d="M1073.48,417.4c-7.8,6.55-16.85,11.32-25.29,16.82-3.42,2.23-9.59,8.4-12.87,9.9-1.83.84-3.59.89-5.53.8-.29-1.55.09-2.8.7-4.21,1.78-4.13,23.12-18.28,28.25-21.34,1.5-.89,11.32-6.22,11.99-6.23,2.41-.05,3.43,2.19,2.75,4.26Z"/>
  <path class="cls-1" d="M253.07,81.28c-2.58,1.22-8.08,6.73-9.05,7.13-1.25.52-2.83-.72-3.42-.39l.15,4.48c-9.35-1.93-19.52,13.91-28.16,12.92-1.14-.13-1.93-1.56-2.83-2.27l33.91-20.39c4.64-6.07,14.15-12.19,21.15-6.29l-11.76,4.8Z"/>
  <path class="cls-1" d="M872.64,349.75c-.38.43-5.85-.83-7.27-.33-6.71,2.37-3.24,4.89-4.2,7.41-1.16,3.04-4.72,8.96-6.44,12.52-2.83,5.88-5.91,11.9-8.85,17.74-.77,1.52-.38,3.42-3.16,2.99-2.53-9.92,6.41-18.39,9.89-27.04.74-1.84,2.47-7.07,2.93-8.96.77-3.18-1.9-7.69,3.32-7.39l.11-3.17c3.6,3.94,10.43-2.29,12.96,1.76.6.96,1.06,4.08.71,4.47Z"/>
  <path class="cls-1" d="M598.13,398.31c1.25.9,2.38,2.81,3.85,3.64.32,8.29,6.85,27.56,2.45,34.17-1.56,2.34-4.5,2.95-5.18-.21l-3.81,1.32c-1.08-3.08,1.97-2.15,2.68-3.4,1.8-3.16-5.08-26.59-4.06-34.12.44-3.26,1.8-3.03,4.07-1.4ZM601.65,423.54c-1.7-3.3,1.09-9.36-2.63-11.1.37,3.22-.83,9.35,2.63,11.1Z"/>
  <path class="cls-1" d="M678.31,407.47c1.05,1.57,1.76,16.26.8,17.74l-4.35-1.11c-.64-15.91-5.58,1.21-8.24,4.55-4.27,5.35-12.82,7.48-8.94-2.37.38-.97,10.49-16.31,11.47-17.46,1.98-2.33,7.85-3.47,9.27-1.34Z"/>
  <path class="cls-1" d="M363.03,425.28c1.37.77,3.77-.09,5.4.06-2.48,3.21-9.8,6.42-13.97,8.1-9.07,3.66-18.63,5.51-28.06,7.99.28-1.56-.19-5.11.8-6.23,4.7-5.36,26.83-8.43,33.89-12.82,1.03.09,1.31,2.54,1.95,2.9ZM352.87,429.27l-11.03,4.86c3.89-.37,9.35-.79,11.03-4.86Z"/>
  <path class="cls-1" d="M418.8,332.71c3.12,2.88-1.49,14.77-1.47,19.06l-.44-12.3c-1.52-.25-2.6.63-3.39,1.78-.47.69.15,13.74-.43,16.66-.15.75-4.97,1.6-.35,5.25l2.66-3.45c.57,2.18.45,8.3-.15,10.11-.89,2.68-3.44,4.22-4.33,6.82-1.19,3.45,1.45,6.66-4.72,6.95,1.87-15.92,1.48-31.89,5.2-47.62l7.42-3.25ZM413.51,369.85l-.13-3.35-3.24,2.93,3.37.43Z"/>
  <path class="cls-1" d="M920.98,414.14l-2.75,7.97c-11.93,3.15-24.14,4.06-36.36,4.49l-3.15-2.52c3.67-1.47,3.27-4.95-1.26-3.88-.37-1.86,2.69-1.33,3.91-1.3,8.33.23,16.11.43,24.6-.86,5.21-.8,10.19-1.86,15.01-3.89Z"/>
  <path class="cls-1" d="M890.42,314.32c-1.65.12-2.86,1.15-3.9,2.34-5.63,6.45-12.46,18.98-17.93,23.89-1.13,1.02-2.46,1.79-4.07,1.63l.44-3.36-3.84,2.37.26-6.8c.68-1.02,3.31-1.26,4.49-2.3,5.4-4.8,8.89-13.07,12.53-17.01,1.93-2.09,10.89-6.01,12.01-.76Z"/>
  <path class="cls-1" d="M791.14,395.16l-4.3.33c1.3-10.64-1.34-20.55-2.29-30.71-.39-4.19-2.2-15.82,4.6-15.06,5.31.6,1.08,9.35.86,11.39-1.22,11.7,4.63,22.64,1.14,34.05Z"/>
  <path class="cls-1" d="M1084.77,147.68c-5.06,4.67-17.97,5.53-24.65,7.93-4.73,1.7-13.74,9.8-16.04,3.51l-2.25.58c-3.17-4.25,14.31-7.15,16.53-7.89,6.77-2.24,19.29-8.32,25.19-9.08,4.69-.6,3.63,2.73,1.22,4.95Z"/>
  <path class="cls-1" d="M453.81,428.93c.93-4.74,7.7-4.53,8.63-9.26-3.02-2.23-9.1,9.75-13.21,6.64,1.97-1.64,2.36-4.28,3.85-6.21.84-1.09,12.01-11.17,13.09-11.85,3-1.88,7.5-.4,10.29-3.68,4.79,7.62-20.49,26.12-22.65,24.36Z"/>
  <path class="cls-1" d="M582.58,334.67l-.23,5.48c-2.51,5.56-21.54-.28-26.18-2.07-1.49-.57-1.42-2.54-2.09-2.57-3.01-.14-5.21,4.95-7.22.34l4.45-.73-2.41-4.96c11.48-1.31,22.47,2.96,33.67,4.5ZM579.44,336.91l-20.28-2.62c1.43,2.03,6.5,3.51,8.81,3.89,2.44.4,10.64,1.76,11.47-1.26Z"/>
  <path class="cls-1" d="M592.52,357.73l-2.26-1.05c-1.93,3.95,2.56,7.4,2.54,8.16-.1,3.66-.14,11.82-.6,14.74-.6,3.75-5.85,6.01-.67,12.4l-2.19.62c-4.33-9.26-1.7-17.65-2.11-27.45-.29-6.94-1.67-14.79-3.03-21.62l5.89-2.37,2.53,2.02-.09,14.55ZM591.28,354.41l-2.5-7.75c-.53,3.07-1.11,6.37,2.5,7.75Z"/>
  <path class="cls-1" d="M204.07,109.83c.18.05,2.72,2.29,2.71,2.47-.2,6.84-8.05,3.59-9.84,8.69l1.72,1.07-2.71,2.34-.65-2.21-3.78,4.06,4.45-.72-2.14,2.95-4.52-1.59c-1.02,3.08-3.78,6.69-5.83,9.2-4.33,5.29-8.27,10.25-12.35,15.57-3.75,4.88-6.58,3.28-2.83-1.59,7.75-10.04,16.01-19.77,22.5-30.97,5.12-2.6,6.71-11.2,13.25-9.27Z"/>
  <path class="cls-1" d="M311.53,438.43l-8.22.47-17.49-2.15c4.19-2.23,3.55-8.22,6.87-10.46,2.83-.58,15.99,3.36,18.71,5.07,3.83,2.41.44,3.32.12,7.06Z"/>
  <path class="cls-1" d="M404.25,392.63c-5.91,9.5-13.52,19.36-22.67,25.98-4.91,3.55-6.47,3.36-12.14,3.31-.44-2.11,1.36-3.25,2.6-4.61,3.98-4.34,22.92-22.07,26.96-23.62,1.76-.68,3.31-1.28,5.25-1.06ZM391.26,405.44l-3.64,1.53-10.47,11.3c2.68-.81,6.13-4,8.16-5.93,2.14-2.04,4.44-4.36,5.95-6.9Z"/>
  <path class="cls-1" d="M234.09,432.45c-7.25.72-13.19,5.67-19.88,8.04-2.26.8-14.38,4.34-15.59,3.36l1.07-2.78,24.32-8.24-1.73-2.05-27.18,8.71c.65-1.61,2.4-3.76,4.02-4.36,5.32-1.98,17.83-5.83,23.17-6.58,5-.7,10.11-1.84,11.81,3.92Z"/>
  <path class="cls-1" d="M276.3,390.56l-6.83-2.57,6.83-29.09,3.8-3.04c6.69,5.12,2.57,8.29,1.35,12.98-1.87,7.21-2.38,14.74-5.16,21.72Z"/>
  <path class="cls-1" d="M839.44,392.46c-.81,7.37-6.34,10.37-11.27,14.99-.91.85-2.59.89-3.42,1.65-4.83,4.43-6.58,11.44-14,13.5l-.62-3.28-4.43,1.27c-.55-7.5,5.4-5.77,9.72-8.81.5-.35,6.53-5,6.95-5.39,2.65-2.41,13.38-16.47,17.06-13.92Z"/>
  <path class="cls-1" d="M683.7,362.02l4.29-1.05c-.97,2.89,2.41,5.42,2.55,7.18.08.98-2.53.59-3.13,2.53-.94,3.06-.62,9.33-.85,12.77-3.72-1.37-.19-7.01-1.49-10.03-1.46-.25-1.73,2.15-1.84,3.13-.49,4.33-2.28,14.91,1.45,17.06l2.01-6.79-.96,9.38-6.42,3.21c-2.63-1.74,3.73-31.11-.3-36.25l3.9-3.11.78,1.98Z"/>
  <path class="cls-1" d="M775.35,308.97c4.35,2.89,4.16,9.98,6.09,14.94,1.41,3.62,3.32,7.3,5.19,10.71,1.53,2.79,6.27,4.72,2.19,8.1-2.74.86-5.1-3.02-6.15-5-2.63-4.94-4.17-11.73-7.28-16.61-2.82-4.41-7.94-8.22-10.36-13.38-9.01,5.19-16.63,7.7-27.06,8.81l3.28-2.36-1.26-3.3c4.94-1,11.41-4.59,16.24-5.02,3.43-.31,6.92,1.16,10.29,1.52,4.34.47,3.12-2.19,8.82,1.6Z"/>
  <path class="cls-1" d="M658.28,438.31c-4.68,5.79-9.88,11.49-15.18,16.71-1.31,1.29-3.44,1.67-4.87,3.04-.94.9-10.32,13.85-12.44,11.69-.47-2.56.72-4.25,2.01-6.23,5.22-8,15.58-15.32,20.95-23.81l9.54-1.4Z"/>
  <path class="cls-1" d="M867.2,414.97l4.31-1.18,3.65,6c.54,2.31-.32,1.29-1.47,1.8-5.76,2.55-11.75-6.47-16.15-9.62-3.15-2.25-14.01-6.87-14.33-10.09-1.07-10.88,11.61,2.48,14.16,4.45,3.66,2.83,9.93,4.13,9.83,8.64Z"/>
  <path class="cls-1" d="M1024.32,448.5l2.77-1.22.63,2.19c-10.2,4.2-22.36-.95-32.15.43-5.97.85-10.6,6.69-13.94-3.21,1.25-1.66,20.36.48,24.14.31,5.57-.25,19.08-6.33,18.56,1.5Z"/>
  <path class="cls-1" d="M346.28,125.65c-.3,6.4-2.54,13.18-7.19,17.65l2.2,2.05-1.29,7.45-.66-2.78-2.27-.49c-1.74,1.82-.72,13.96-5.03,15.87.03-6.13-.6-14.59.4-20.51.08-.48,4.73-6.28,5.5-8.06,2.47-5.66-.03-10.08,8.33-11.18Z"/>
  <path class="cls-1" d="M1139.62,166.23l-3.14,7.5c5.13,4.53.92,11.3,2.77,17.48-.81,3.84-6.24,3.1-7.42.41-2.23-5.08,1.16-19.2-2.29-25.01,4.39-2.82,6.37,1.62,10.08-.38Z"/>
  <path class="cls-1" d="M916.72,306.06c.5.26,1.48,1.75,2.45,2.14-.05,3.32-2.51,7.52-2.77,10.32-.28,2.98,1.34,6.05,1.11,7.59-.1.69-6.24,7.6-6.75,7.64-1.86.14-1.18-2.7-1.24-3.33-.76-8.14,1.97-15.91-.4-23.88.46-2.32,6.07-1.29,7.59-.49Z"/>
  <path class="cls-1" d="M1129.14,155.4c.46,3.48-2.86,3.62-5.48,3.57l1.22,2.18c-1.23.15-2.42.14-3.63-.16-5.14-1.28-19.58-8.81-24.87-11.7-1.47-.8-2.82.31-2.31-2.7,13.69-3.79,21.95,9.45,35.08,8.81Z"/>
  <path class="cls-1" d="M909.96,338.76c.49.26,1.36,1.98,2.75,2.23-1.97,5.14-22.01,11.44-27.7,9.42l.85-7.87c7.51,3.67,18.08-6.9,24.1-3.78Z"/>
  <path class="cls-1" d="M295.23,326.02l.28,1.88,2.47-.7,1.76,2.35c-2.59,2.12-7.5,18.2-8.34,18.8-1.19.85-8.54,2.42-8.39-.7l-5.98,1.4c.46-5.03,5.78-3.2,8.19-5.9,2.25-2.52,2.49-9.64,3.83-12.13.45-.84,4.05-2.92,4.53-4.98h1.64ZM289.25,345.24c2.51-.77,2.26-3.59,2.01-5.67-.7-1.36-2.64,4.14-2.01,5.67Z"/>
  <path class="cls-1" d="M412.13,395.8c3.02,9.46.93,18.2,6.61,27.05l-7.64,3.16c-.64-.42-2.4-12.91-2.71-15.16-.22-1.64.79-3.37.58-5.25-.41-3.83-5.9-10.64,3.15-9.8Z"/>
  <path class="cls-1" d="M491.98,369.33c.44,6.44-3.26,7.87-5.4,11.61-1.85,3.23-2.09,7.36-3.4,9.85-1.53,2.89-5.8,7.6-7.94,10.46.65-7.76,5.4-14.84,7.79-22.5,1.2-3.84.05-7.66,3.32-11.54l5.63,2.11Z"/>
  <path class="cls-1" d="M796.26,417.94c-1.81-1.17-7.12-3.08-8.45-4.88-1.07-1.45-.87-3.81-1.75-5.46-.98-1.86-4.49-2.81-2.42-7.51,2.58,1.17,5.41,2.11,7.49,4.15.78.77,9,11.39,9.33,12.08.84,1.71.8,4.1-.95,4.49-2.13.48-2.14-2.15-3.25-2.86Z"/>
  <path class="cls-1" d="M442.52,427.11c.52,2.4-.98,2.7-2.69,3.44-2.58,1.12-19.47,5.2-20.59,4.12l-.12-3.35c.77-.86,6.89,1.66,5.53-2.44l-6.81-2.56c1.61-2.64,2.11-.98,3.92-.76,6.89.84,13.78,2.33,20.76,1.55Z"/>
  <path class="cls-1" d="M393.45,280.91l-1.01,3.4-3.27-.9c-1.13,9.53-17.98-2.71-17.09-3.96,6.81-2.49,14.4.53,21.36,1.46Z"/>
  <path class="cls-1" d="M500.67,285.47c1,1.49,4.18,5.84,4.25,7.62s-3.5,5.35-1.93,8.47c-6.9-3.24-10.3-14.55-4.64-19.99,1.41.94,1.46,2.61,2.32,3.9Z"/>
  <path class="cls-1" d="M520.2,288.89c2.07,1.91.37,4.55.77,6.7.31,1.69,4.5,3.3-1.21,4.23l-1.19-2.19-1.58,3.39c-3.33-3.4-3.04-6.79-7.65-9.78,4.27.1,4.79-1.89,4.29-5.77l6.56,3.41Z"/>
  <path class="cls-1" d="M906.71,306.76l-12.54,3.66-2.93-3.38c4.57-4.37,11.62-4.49,16.52-9.03l-1.05,8.75Z"/>
  <path class="cls-1" d="M617.45,456.59l-3.3,1.26c.38-4.39-4.08-4.78-6.46-7.6l-1.58,3.4-7.89-1.97,2.99-2.82-1.03-5.09c7.04,2.38,12.65,7.09,17.28,12.81Z"/>
  <path class="cls-1" d="M537.64,316.74c1.35,1,4.65.27,4.21,4.71-3.23-2.25-5.96-5.35-10.27-5.23.03,2.22,1.03,3.97-2.13,3.43,1.03-.48-.97-4.83-1.18-5.03-3.1-2.95-8.37.5-9.34-6.9,7.19,1.01,13.27,4.98,18.71,9.02Z"/>
  <path class="cls-1" d="M1113.82,196.3c3.23-6.02,12.29-5.92,16.75-1.16.16,2.13-14.41,3.73-16.75,1.16Z"/>
  <path class="cls-1" d="M1003.18,84.87l.14,3.35-7.8,1.41c-1.15-3.41,6.69-5.68,7.67-4.75Z"/>
  <polygon class="cls-1" points="858.59 333.46 850.97 339.33 851.84 334.24 858.59 333.46"/>
  <path class="cls-1" d="M917.77,295.4l-8.99-.77c3.88-1.88,6.27-4.36,8.99.77Z"/>
  <path class="cls-1" d="M166.8,155.74l-2.5,7.93c-3.34-1.57-.83-8.19,2.5-7.93Z"/>
  <path class="cls-1" d="M1109.08,189.77c-1.22,2.52-3.39,5.12-6.55,4.71-1.19-2.68,5.75-5.3,6.55-4.71Z"/>
  <path class="cls-1" d="M920.09,297.57c.99,4.48-5.56,1.6-7.79,1.39l7.79-1.39Z"/>
  <path class="cls-1" d="M1037.08,153.16c-.88,2.17-5.64,3.07-7.71,3.62,1.2-3.45,4.39-3.9,7.71-3.62Z"/>
  <polygon class="cls-1" points="621.9 458.81 622.13 462.03 620.47 462.09 617.49 457.73 621.9 458.81"/>
  <path class="cls-1" d="M732.87,299.92l-1.02,3.37c-2.03.42-3.25.14-4.51-1.5l5.53-1.87Z"/>
  <path class="cls-1" d="M885.45,301.08l-2.69,3.44-1.66.06-.06-1.66c1.11-1.8,2.33-2.04,4.41-1.85Z"/>
  <path class="cls-1" d="M327.52,287.79l.08,2.21-4.38,2.42c-.51-2.14,1.37-3.16,2.64-4.57l1.66-.07Z"/>
  <path class="cls-1" d="M339.78,162.88l-1.09.04c-.63-2.31-2.1-3.82.35-5.61l.75,5.57Z"/>
  <polygon class="cls-1" points="187.46 138.17 187.55 140.39 183.11 141.68 185.81 138.24 187.46 138.17"/>
  <polygon class="cls-1" points="1098.73 152.03 1098.77 153.13 1094.3 153.3 1094.22 151.07 1098.73 152.03"/>
</svg>